<svg xmlns="http://www.w3.org/2000/svg" viewBox="0 0 200 90" width="200" height="90" fill="none">
  <defs>
    <radialGradient id="g5" cx="50%" cy="95%" r="55%">
      <stop offset="0%" stop-color="#ef4444" stop-opacity="0.5"/>
      <stop offset="100%" stop-color="#ef4444" stop-opacity="0"/>
    </radialGradient>
  </defs>
  <rect width="200" height="90" rx="16" fill="#0a0a0c"/>
  <ellipse cx="100" cy="82" rx="88" ry="8" fill="url(#g5)"/>
  <g fill="none" stroke="#fafaf9" stroke-width="2.6" stroke-linecap="round" stroke-linejoin="round">
    <!-- FRONT ROW: 2 seats -->
    <g transform="translate(40 8)">
      <path d="M0 8 q0 -8 8 -8 h18 q8 0 8 8 v26 q0 5 -5 5 h-24 q-5 0 -5 -5 z"/>
      <path d="M-2 39 h30 q4 0 4 4 v22 q0 4 -4 4 h-7 q-4 0 -4 -4 v-12 h-8 v12 q0 4 -4 4 h-7 q-4 0 -4 -4 v-22 q0 -4 4 -4 z"/>
    </g>
    <g transform="translate(82 8)">
      <path d="M0 8 q0 -8 8 -8 h18 q8 0 8 8 v26 q0 5 -5 5 h-24 q-5 0 -5 -5 z"/>
      <path d="M-2 39 h30 q4 0 4 4 v22 q0 4 -4 4 h-7 q-4 0 -4 -4 v-12 h-8 v12 q0 4 -4 4 h-7 q-4 0 -4 -4 v-22 q0 -4 4 -4 z"/>
    </g>
    <!-- REAR ROW: 3 seats -->
    <g transform="translate(130 8)">
      <path d="M0 8 q0 -8 7 -8 h14 q7 0 7 8 v26 q0 5 -4 5 h-20 q-4 0 -4 -5 z"/>
      <path d="M-1 39 h24 q3 0 3 3 v22 q0 3 -3 3 h-6 q-3 0 -3 -3 v-12 h-6 v12 q0 3 -3 3 h-6 q-3 0 -3 -3 v-22 q0 -3 3 -3 z"/>
    </g>
    <g transform="translate(156 8)">
      <path d="M0 8 q0 -8 7 -8 h14 q7 0 7 8 v26 q0 5 -4 5 h-20 q-4 0 -4 -5 z"/>
      <path d="M-1 39 h24 q3 0 3 3 v22 q0 3 -3 3 h-6 q-3 0 -3 -3 v-12 h-6 v12 q0 3 -3 3 h-6 q-3 0 -3 -3 v-22 q0 -3 3 -3 z"/>
    </g>
    <g transform="translate(182 8)">
      <path d="M0 8 q0 -8 7 -8 h14 q7 0 7 8 v26 q0 5 -4 5 h-20 q-4 0 -4 -5 z"/>
      <path d="M-1 39 h24 q3 0 3 3 v22 q0 3 -3 3 h-6 q-3 0 -3 -3 v-12 h-6 v12 q0 3 -3 3 h-6 q-3 0 -3 -3 v-22 q0 -3 3 -3 z"/>
    </g>
  </g>
</svg>
